<svg id="ios-image" xmlns="http://www.w3.org/2000/svg" width="48.795" height="48.796" viewBox="0 0 48.795 48.796">
  <path id="Trazado_76" data-name="Trazado 76" d="M107.643,135.54h22.368a.653.653,0,0,0,.528-1.032l-11.19-17.993a.647.647,0,0,0-1.067,0L107.1,134.508A.658.658,0,0,0,107.643,135.54Zm22.767-6.8,4.105,6.534a.636.636,0,0,0,.528.282h6.24a.653.653,0,0,0,.528-1.032l-7.225-10.287a.647.647,0,0,0-1.067,0L130.4,128A.676.676,0,0,0,130.41,128.737Zm5.208-10.135a3.284,3.284,0,1,0-3.6-3.6A3.3,3.3,0,0,0,135.618,118.6Z" transform="translate(-100.066 -104.538)" fill="#d3d3d6"/>
  <path id="Trazado_77" data-name="Trazado 77" d="M93.041,48H51.753A3.749,3.749,0,0,0,48,51.754V93.042A3.749,3.749,0,0,0,51.753,96.8H93.041a3.749,3.749,0,0,0,3.753-3.754V51.754A3.749,3.749,0,0,0,93.041,48Zm-.317,32.843a.941.941,0,0,1-.938.938H53.009a.941.941,0,0,1-.938-.938V53.009a.941.941,0,0,1,.938-.938H91.8a.941.941,0,0,1,.938.938V80.843Z" transform="translate(-48 -48)" fill="#d3d3d6"/>
</svg>
